<?xml version="1.0" encoding="utf-8"?>
<!-- Generator: Adobe Illustrator 16.0.3, SVG Export Plug-In . SVG Version: 6.00 Build 0)  -->
<!DOCTYPE svg PUBLIC "-//W3C//DTD SVG 1.1//EN" "http://www.w3.org/Graphics/SVG/1.1/DTD/svg11.dtd">
<svg version="1.1" id="Layer_1" xmlns="http://www.w3.org/2000/svg" xmlns:xlink="http://www.w3.org/1999/xlink" x="0px" y="0px"
	 width="512px" height="512px" viewBox="0 0 512 512" enable-background="new 0 0 512 512" xml:space="preserve">
<path d="M322.2,162.286c-3.101,3.101-3,8,0,11.3l66.399,74.4H104c-4.4,0-8,3.6-8,8s3.6,8,8,8h284.6l-66.3,74.4
	c-2.899,3.399-3.2,8.1-0.1,11.199c3.1,3.101,8.5,3.301,11.399,0.101c0,0,79.2-87,80-88c0.801-1,2.4-2.8,2.4-5.7s-1.6-4.9-2.4-5.7
	c-0.8-0.8-80-88-80-88c-1.5-1.5-3.6-2.3-5.699-2.3C325.8,159.986,323.8,160.786,322.2,162.286z"/>
</svg>
