<?xml version="1.0" encoding="utf-8"?>
<!-- Generator: Adobe Illustrator 16.0.3, SVG Export Plug-In . SVG Version: 6.00 Build 0)  -->
<!DOCTYPE svg PUBLIC "-//W3C//DTD SVG 1.1//EN" "http://www.w3.org/Graphics/SVG/1.1/DTD/svg11.dtd">
<svg version="1.1" id="Layer_1" xmlns="http://www.w3.org/2000/svg" xmlns:xlink="http://www.w3.org/1999/xlink" x="0px" y="0px"
	 width="512px" height="512px" viewBox="0 0 512 512" enable-background="new 0 0 512 512" xml:space="preserve">
<path fill="#FFFFFF" d="M189.8,349.7c3.1-3.101,3-8,0-11.3L123.4,264H408c4.4,0,8-3.6,8-8c0-4.4-3.6-8-8-8H123.4l66.3-74.4
	c2.9-3.4,3.2-8.1,0.1-11.2c-3.1-3.1-8.5-3.3-11.4-0.1c0,0-79.2,87-80,88c-0.8,1-2.4,2.8-2.4,5.7c0,2.9,1.6,4.9,2.4,5.7
	c0.8,0.8,80,88,80,88c1.5,1.5,3.6,2.3,5.7,2.3S188.2,351.2,189.8,349.7z"/>
</svg>
